<?xml version="1.0" standalone="no"?>
<!DOCTYPE svg PUBLIC "-//W3C//DTD SVG 20010904//EN"
 "http://www.w3.org/TR/2001/REC-SVG-20010904/DTD/svg10.dtd">
<svg version="1.0" xmlns="http://www.w3.org/2000/svg"
 width="1027.000000pt" height="1027.000000pt" viewBox="0 0 1027.000000 1027.000000"
 preserveAspectRatio="xMidYMid meet">
<metadata>
Created by potrace 1.14, written by Peter Selinger 2001-2017
</metadata>
<g transform="translate(0.000000,1027.000000) scale(0.100000,-0.100000)"
fill="#000000" stroke="none">
<path d="M6640 9803 c-484 -48 -871 -211 -1227 -517 -206 -177 -381 -401 -504
-645 l-51 -101 -1008 0 c-969 0 -1013 -1 -1113 -20 -269 -52 -484 -165 -672
-354 -151 -151 -244 -302 -310 -499 -66 -198 -65 -180 -65 -1233 0 -906 1
-953 19 -1006 29 -84 47 -114 105 -171 165 -161 421 -166 587 -11 60 57 94
113 120 195 18 58 19 107 19 954 0 557 4 912 10 945 31 164 152 292 315 335
50 13 154 15 673 15 l614 0 -32 -37 c-46 -56 -133 -189 -168 -258 -238 -478
-140 -1075 238 -1454 187 -186 401 -302 660 -358 80 -17 181 -18 1835 -18
l1750 0 109 23 c528 113 951 465 1145 955 213 535 111 1146 -265 1591 -149
176 -404 357 -621 440 -68 26 -68 26 -107 102 -88 171 -258 397 -399 530 -361
341 -759 528 -1247 589 -111 13 -316 18 -410 8z m480 -861 c238 -63 406 -157
575 -320 133 -128 235 -281 305 -459 50 -124 79 -171 143 -230 61 -56 106 -78
228 -108 161 -40 254 -90 358 -193 133 -133 196 -274 208 -462 8 -128 -14
-236 -72 -355 -93 -192 -233 -310 -445 -377 l-75 -23 -1670 0 -1670 0 -58 24
c-160 64 -268 222 -269 391 0 132 43 232 138 320 70 64 151 98 269 110 158 17
232 48 315 130 91 92 116 163 130 372 11 154 32 258 79 387 128 352 415 634
771 758 73 26 159 48 260 67 14 2 102 3 195 2 153 -3 181 -6 285 -34z"/>
<path d="M3195 4693 c-16 -2 -77 -11 -135 -19 -590 -89 -1116 -429 -1453 -939
-128 -195 -254 -497 -302 -726 l-16 -77 -47 -17 c-149 -56 -318 -162 -433
-272 -407 -389 -514 -992 -263 -1494 186 -374 521 -621 938 -694 131 -22 3404
-23 3554 0 414 62 756 265 1022 605 123 157 228 384 280 607 l12 53 489 0
c532 0 610 6 771 56 442 138 761 488 875 959 15 62 17 159 20 835 3 576 1 776
-8 810 -100 372 -597 436 -784 102 -54 -96 -55 -112 -55 -838 0 -408 -4 -692
-10 -724 -32 -170 -170 -308 -339 -340 -31 -6 -258 -10 -546 -10 l-492 0 -50
103 c-177 364 -468 636 -836 783 -67 26 -69 28 -103 97 -176 349 -492 676
-843 873 -238 134 -508 222 -786 259 -105 13 -378 19 -460 8z m413 -848 c260
-49 478 -158 660 -330 141 -132 237 -275 318 -470 58 -140 67 -156 124 -215
58 -59 143 -103 246 -124 309 -65 525 -298 564 -610 28 -225 -45 -433 -209
-597 -84 -84 -171 -137 -289 -178 l-77 -26 -1639 -3 c-1073 -1 -1658 1 -1694
8 -178 33 -314 173 -344 354 -29 173 67 359 225 439 56 28 98 38 242 57 100
13 183 52 249 117 61 60 116 170 122 244 24 300 32 351 78 487 65 191 158 337
310 488 202 201 405 306 691 359 99 19 325 18 423 0z"/>
</g>
</svg>
